<svg id="Livello_1" data-name="Livello 1" xmlns="http://www.w3.org/2000/svg" viewBox="0 0 436.63 386.68"><defs><style>.cls-1{fill:#f3ad16;}.cls-2{fill:gray;}.cls-2,.cls-3{opacity:0.6;}.cls-3{fill:#4d4d4d;}</style></defs><title>atom-logo</title><path class="cls-1" d="M522.58,631.53a9.5,9.5,0,0,1-1.64-8.32l75.9-221.13Q600.42,392,609.92,392h50.71q9.48,0,13.08,10.05L749.6,623.21a9.08,9.08,0,0,1,.33,3.12,7.15,7.15,0,0,1-2.13,5,6.41,6.41,0,0,1-4.74,2.25h-42.2q-8.18,0-11.12-7.63l-17-48.87a179.33,179.33,0,0,1-23.88,8,208.05,208.05,0,0,1-23.39,4.68q-11.28,1.56-21.1,2.08t-17,.52h-7.69a24.61,24.61,0,0,1-4.74-.34q5.9,1,9.65,6.93t.82,13.86L580.81,626c-2,5.09-5.68,7.63-11.12,7.63h-42.2A8.06,8.06,0,0,1,522.58,631.53Zm83.09-88.73a191,191,0,0,0,19-2.43,165.32,165.32,0,0,0,17.83-4,78.74,78.74,0,0,0,17.83-7.45l-25.19-76.26Z" transform="translate(-416.39 -328.26)"/><path class="cls-2" d="M852,515.91a39.63,39.63,0,0,0-5.12-15.47,54.33,54.33,0,0,0-4.56-6.72,69.61,69.61,0,0,0-5.32-6c-7.51-7.64-16.31-13.6-25.34-18.86a209,209,0,0,0-28.27-13.21c-4.83-1.88-9.72-3.57-14.64-5.17l-2.91-.91c.79-3.19,1.53-6.41,2.22-9.64,1.11-5.15,2.08-10.34,2.85-15.58a190.57,190.57,0,0,0,2.28-31.84,122.18,122.18,0,0,0-1.3-16.14,85.52,85.52,0,0,0-3.86-16,60.2,60.2,0,0,0-3.32-7.67,45.09,45.09,0,0,0-4.5-7.14,54.85,54.85,0,0,0-28.4-16.77,46.7,46.7,0,0,0-8.34-.49,59.23,59.23,0,0,0-8.23.74c-10.85,1.76-21,5.82-30.43,10.66A197.75,197.75,0,0,0,658,356.63a288.45,288.45,0,0,0-24.1,20.2l-.15.15a289.7,289.7,0,0,0-23.5-19.83,196.69,196.69,0,0,0-26.61-17,128.5,128.5,0,0,0-14.6-6.53c-2.51-.92-5.06-1.78-7.67-2.51a69.75,69.75,0,0,0-7.94-1.79,60.12,60.12,0,0,0-8.18-.82,47.18,47.18,0,0,0-8.3.42,51.79,51.79,0,0,0-28.31,16.66,53.52,53.52,0,0,0-7.73,14.8c-3.64,10.46-4.85,21.36-5.11,32.05-.07,5.36.11,10.7.49,16s1,10.57,1.78,15.8,1.75,10.42,2.81,15.58c.67,3.23,1.41,6.44,2.19,9.64-7.61,2.36-15.14,5-22.55,8a193.66,193.66,0,0,0-28,13.95c-8.89,5.57-17.52,11.93-24.54,20.17a59.06,59.06,0,0,0-4.85,6.53,46.2,46.2,0,0,0-3.87,7.25,48.64,48.64,0,0,0,0,32.7,55,55,0,0,0,9,14.09,85.84,85.84,0,0,0,11.89,11.32,129,129,0,0,0,13.32,9.22,198.53,198.53,0,0,0,28.7,14.16c4.92,2,9.91,3.82,14.93,5.51q3.88,1.3,7.8,2.52c-2,8-3.69,16-5,24.21-.84,5.18-1.49,10.41-1.94,15.66s-.73,10.55-.69,15.86a126,126,0,0,0,1,16,83.86,83.86,0,0,0,3.52,15.83A60.31,60.31,0,0,0,505,690a43.83,43.83,0,0,0,4.24,7.15,49,49,0,0,0,27.95,17,43.06,43.06,0,0,0,8.32.5,59.11,59.11,0,0,0,8.22-.77c10.85-1.74,21-5.78,30.44-10.6,18.33-9.48,34.57-22,49.58-35.6,3.6,3.29,7.3,6.48,11.06,9.6q6.06,5.06,12.48,9.72a195.38,195.38,0,0,0,27.05,16.8c9.57,4.76,19.75,8.76,30.69,10.43a58.41,58.41,0,0,0,8.28.69,45.41,45.41,0,0,0,8.38-.61A49.89,49.89,0,0,0,759.47,697a44.65,44.65,0,0,0,4.18-7.15,61.27,61.27,0,0,0,3-7.62,82.5,82.5,0,0,0,3.38-15.79,134.9,134.9,0,0,0,.93-15.92c0-5.29-.28-10.57-.76-15.8s-1.16-10.45-2-15.62c-1.31-8-3-16-5-23.79,4.62-1.38,9.2-2.9,13.75-4.52,5-1.79,10-3.68,14.85-5.8a182.38,182.38,0,0,0,28.41-15,116.56,116.56,0,0,0,13-9.86A73.63,73.63,0,0,0,844.42,548a47.29,47.29,0,0,0,7.45-15.19A33.65,33.65,0,0,0,852,515.91ZM544.09,496.59q-8.4-18-15.39-36.48c13.48-2.58,27.1-4.53,40.78-6q-6.65,10-12.82,20.33Q550.11,485.36,544.09,496.59Zm-2.41,50.15q6.24,11.57,13,22.8,5.58,9.19,11.55,18.14c-13.16-1.45-26.25-3.37-39.2-5.85q3.06-8.31,6.46-16.5C536.09,559.07,538.84,552.89,541.68,546.74Zm19.59-16.13q-3-5.64-6-11.33c1.41-2.68,2.82-5.35,4.28-8,4.79-8.79,9.84-17.44,15-26s10.64-17,16.22-25.28c1.83-2.72,3.7-5.41,5.58-8.1,1.95-.11,3.89-.23,5.84-.32,9.9-.49,19.82-.8,29.74-.8s19.85.12,29.76.55c4,.16,8.1.38,12.15.63,1.71,2.44,3.41,4.89,5.07,7.37,2.81,4.14,5.55,8.35,8.25,12.57s5.37,8.48,8,12.76,5.16,8.61,7.65,13,5,8.71,7.37,13.12q2.13,3.91,4.19,7.86-9.86,19.56-21.09,38.45c-5.09,8.61-10.42,17.06-15.91,25.41q-2.54,3.88-5.17,7.72c-1.6.1-3.21.19-4.82.27q-15.14.83-30.33.85c-10.12.1-20.24-.13-30.34-.55-3-.12-5.9-.27-8.85-.43q-11.36-16.51-21.72-33.71C571,548,566,539.4,561.27,530.61ZM713.5,569.26q7.28-11.89,14-24.16c5.51,11.95,10.59,24.1,15.1,36.43-13.52,2.64-27.19,4.66-40.93,6.16Q707.74,578.59,713.5,569.26ZM724.32,498q-2.58-4.83-5.25-9.61c-2.54-4.51-5.17-9-7.82-13.43s-5.39-8.84-8.19-13.21q-2.52-3.92-5.12-7.79,21.21,2.18,42.14,6.08Q733,479.24,724.32,498ZM657.16,379.19c3.57-3.44,7.21-6.8,11-10a210.34,210.34,0,0,1,23.39-17.94c8.18-5.3,16.81-9.92,25.89-12.68a51.71,51.71,0,0,1,6.86-1.62,38.81,38.81,0,0,1,7-.58,31.18,31.18,0,0,1,13.49,2.89,30.62,30.62,0,0,1,4.89,5A34.85,34.85,0,0,1,753.2,350a40.1,40.1,0,0,1,2.52,6.43,51.34,51.34,0,0,1,1.6,6.8c1.61,9.26,1.34,19,.35,28.58a221.06,221.06,0,0,1-5.28,28.83q-1.8,7.15-3.89,14.26c-.89,3-1.84,6-2.82,9q-3.37-.82-6.75-1.61c-5-1.14-10.07-2.15-15.13-3.1-10.11-1.93-20.29-3.37-30.49-4.6-3.2-.37-6.41-.69-9.62-1q-3.74-5-7.58-10a421.11,421.11,0,0,0-29.42-33.93C650.11,386.1,653.61,382.62,657.16,379.19Zm-22.08,23.15c2.62,3,5.21,5.93,7.74,9,5.68,6.68,11.1,13.58,16.42,20.56-9.12-.41-18.25-.63-27.38-.59q-10.44.06-20.87.52c5.11-6.7,10.32-13.33,15.75-19.76Q630.87,407.14,635.08,402.34ZM511.3,363.12a53.5,53.5,0,0,1,1.65-6.8,38.64,38.64,0,0,1,2.56-6.43,31.17,31.17,0,0,1,8.61-10.75,31.19,31.19,0,0,1,13.48-3.07,39,39,0,0,1,7,.5,52.32,52.32,0,0,1,6.92,1.56c9.16,2.64,17.87,7.21,26.1,12.5a209.5,209.5,0,0,1,23.59,17.84c7.28,6.27,14.23,13,21,19.88a417,417,0,0,0-30.28,34.71q-4.12,5.26-8.1,10.66c-4.45.43-8.9.91-13.34,1.49-10.19,1.3-20.36,2.89-30.45,4.92q-8.54,1.68-17,3.78c-1-3-1.94-6-2.86-9-1.43-4.73-2.71-9.49-3.92-14.27s-2.26-9.57-3.15-14.38-1.65-9.64-2.15-14.48a125.47,125.47,0,0,1-.78-14.46A81.62,81.62,0,0,1,511.3,363.12ZM487.56,572a212.88,212.88,0,0,1-27.81-10.8c-8.9-4.26-17.4-9.33-24.59-15.72A47.51,47.51,0,0,1,426,534.7a31.06,31.06,0,0,1-4.52-13.2,31.16,31.16,0,0,1,4.26-13,40.1,40.1,0,0,1,4-5.67,49.33,49.33,0,0,1,4.83-5.09A85.38,85.38,0,0,1,445.83,489a125,125,0,0,1,12.6-7.09A206.71,206.71,0,0,1,485.57,471q7-2.28,14.11-4.24c2.54-.7,5.09-1.35,7.65-2a414.44,414.44,0,0,0,23,59.48c-.82,1.79-1.65,3.58-2.45,5.38a420.38,420.38,0,0,0-18.21,48.44C502.2,576.32,494.83,574.32,487.56,572ZM600.84,673.79a208.67,208.67,0,0,1-23.33,18c-8.17,5.31-16.79,9.95-25.88,12.72a48.75,48.75,0,0,1-13.83,2.19,21.65,21.65,0,0,1-22.46-13.47A47.2,47.2,0,0,1,510.73,680c-1.83-9.35-1.83-19.17-1-28.91.46-4.87,1.11-9.75,1.95-14.61s1.86-9.7,3-14.52c1.82-7.6,3.94-15.14,6.31-22.62q11,2.8,22.09,4.93c10.34,2,20.75,3.58,31.18,4.87q3.86.47,7.71.86,4.11,5.5,8.37,10.88c6.48,8.18,13.24,16.15,20.34,23.83,3.16,3.47,6.42,6.86,9.73,10.2C614.13,661.46,607.65,667.83,600.84,673.79Zm34.25-35q-3.76-4.35-7.45-8.79-4.75-5.75-9.31-11.67c-1.57-2-3.11-4-4.65-6q11.73.47,23.47.44,9.63-.06,19.26-.46C649.6,621.31,642.49,630.17,635.09,638.74ZM758.34,680a47.72,47.72,0,0,1-4.74,13.27A21.42,21.42,0,0,1,731,706.41,48.79,48.79,0,0,1,717.28,704c-9-2.85-17.54-7.53-25.63-12.9A215,215,0,0,1,668.51,673q-10.39-9.31-20-19.53,4.51-4.62,8.9-9.37,5.32-5.75,10.38-11.71t10-12c2.69-3.34,5.29-6.74,7.87-10.16,4.81-.48,9.62-1,14.42-1.64,10.43-1.4,20.83-3,31.15-5.2q8.77-1.77,17.48-4c5.27,16.92,9.38,34.21,10.92,51.63A102.09,102.09,0,0,1,758.34,680Zm86.43-149.6A39.63,39.63,0,0,1,837,541.92a71.43,71.43,0,0,1-10.92,9.29,109.56,109.56,0,0,1-12.53,7.55c-4.35,2.29-8.84,4.36-13.43,6.25s-9.25,3.64-14,5.23c-9.09,3.07-18.39,5.65-27.79,7.89A424.31,424.31,0,0,0,740.08,530c-.74-1.66-1.5-3.31-2.26-5,1.75-3.6,3.47-7.21,5.13-10.85a403.35,403.35,0,0,0,18.73-49.49c5.71,1.41,11.37,2.95,17,4.66a227.37,227.37,0,0,1,27.48,10.26,140.85,140.85,0,0,1,13,6.63A100.46,100.46,0,0,1,831,494.35a59.79,59.79,0,0,1,5.3,4.73,47.17,47.17,0,0,1,4.62,5.29,35.13,35.13,0,0,1,6.23,12.37A28.83,28.83,0,0,1,844.77,530.39Z" transform="translate(-416.39 -328.26)"/><path class="cls-3" d="M852,515.91a39.63,39.63,0,0,0-5.12-15.47,54.33,54.33,0,0,0-4.56-6.72,69.61,69.61,0,0,0-5.32-6c-7.51-7.64-16.31-13.6-25.34-18.86a209,209,0,0,0-28.27-13.21c-4.83-1.88-9.72-3.57-14.64-5.17l-2.91-.91c.79-3.19,1.53-6.41,2.22-9.64,1.11-5.15,2.08-10.34,2.85-15.58a190.57,190.57,0,0,0,2.28-31.84,122.18,122.18,0,0,0-1.3-16.14,85.52,85.52,0,0,0-3.86-16,60.2,60.2,0,0,0-3.32-7.67,45.09,45.09,0,0,0-4.5-7.14,54.85,54.85,0,0,0-28.4-16.77,46.7,46.7,0,0,0-8.34-.49,59.23,59.23,0,0,0-8.23.74c-10.85,1.76-21,5.82-30.43,10.66A197.75,197.75,0,0,0,658,356.63a288.45,288.45,0,0,0-24.1,20.2l-.15.15a289.7,289.7,0,0,0-23.5-19.83,196.69,196.69,0,0,0-26.61-17,128.5,128.5,0,0,0-14.6-6.53c-2.51-.92-5.06-1.78-7.67-2.51a69.75,69.75,0,0,0-7.94-1.79,60.12,60.12,0,0,0-8.18-.82,47.18,47.18,0,0,0-8.3.42,51.79,51.79,0,0,0-28.31,16.66,53.52,53.52,0,0,0-7.73,14.8c-3.64,10.46-4.85,21.36-5.11,32.05-.07,5.36.11,10.7.49,16s1,10.57,1.78,15.8,1.75,10.42,2.81,15.58c.67,3.23,1.41,6.44,2.19,9.64-7.61,2.36-15.14,5-22.55,8a193.66,193.66,0,0,0-28,13.95c-8.89,5.57-17.52,11.93-24.54,20.17a59.06,59.06,0,0,0-4.85,6.53,46.2,46.2,0,0,0-3.87,7.25,48.64,48.64,0,0,0,0,32.7,55,55,0,0,0,9,14.09,85.84,85.84,0,0,0,11.89,11.32,129,129,0,0,0,13.32,9.22,198.53,198.53,0,0,0,28.7,14.16c4.92,2,9.91,3.82,14.93,5.51q3.88,1.3,7.8,2.52c-2,8-3.69,16-5,24.21-.84,5.18-1.49,10.41-1.94,15.66s-.73,10.55-.69,15.86a126,126,0,0,0,1,16,83.86,83.86,0,0,0,3.52,15.83A60.31,60.31,0,0,0,505,690a43.83,43.83,0,0,0,4.24,7.15,49,49,0,0,0,27.95,17,43.06,43.06,0,0,0,8.32.5,59.11,59.11,0,0,0,8.22-.77c10.85-1.74,21-5.78,30.44-10.6,18.33-9.48,34.57-22,49.58-35.6,3.6,3.29,7.3,6.48,11.06,9.6q6.06,5.06,12.48,9.72a195.38,195.38,0,0,0,27.05,16.8c9.57,4.76,19.75,8.76,30.69,10.43a58.41,58.41,0,0,0,8.28.69,45.41,45.41,0,0,0,8.38-.61A49.89,49.89,0,0,0,759.47,697a44.65,44.65,0,0,0,4.18-7.15,61.27,61.27,0,0,0,3-7.62,82.5,82.5,0,0,0,3.38-15.79,134.9,134.9,0,0,0,.93-15.92c0-5.29-.28-10.57-.76-15.8s-1.16-10.45-2-15.62c-1.31-8-3-16-5-23.79,4.62-1.38,9.2-2.9,13.75-4.52,5-1.79,10-3.68,14.85-5.8a182.38,182.38,0,0,0,28.41-15,116.56,116.56,0,0,0,13-9.86A73.63,73.63,0,0,0,844.42,548a47.29,47.29,0,0,0,7.45-15.19A33.65,33.65,0,0,0,852,515.91ZM487.56,572a212.88,212.88,0,0,1-27.81-10.8c-8.9-4.26-17.4-9.33-24.59-15.72A47.51,47.51,0,0,1,426,534.7a31.06,31.06,0,0,1-4.52-13.2,31.16,31.16,0,0,1,4.26-13,40.1,40.1,0,0,1,4-5.67,49.33,49.33,0,0,1,4.83-5.09A85.38,85.38,0,0,1,445.83,489a125,125,0,0,1,12.6-7.09A206.71,206.71,0,0,1,485.57,471q7-2.28,14.11-4.24c2.54-.7,5.09-1.35,7.65-2a414.44,414.44,0,0,0,23,59.48c-.82,1.79-1.65,3.58-2.45,5.38a420.38,420.38,0,0,0-18.21,48.44C502.2,576.32,494.83,574.32,487.56,572ZM528.7,460.11c13.48-2.58,27.1-4.53,40.78-6q-6.65,10-12.82,20.33-6.55,10.91-12.57,22.14Q535.69,478.64,528.7,460.11ZM635.09,638.74q-3.76-4.35-7.45-8.79-4.75-5.75-9.31-11.67c-1.57-2-3.11-4-4.65-6q11.73.47,23.47.44,9.63-.06,19.26-.46C649.6,621.31,642.49,630.17,635.09,638.74ZM758.34,680a47.72,47.72,0,0,1-4.74,13.27A21.42,21.42,0,0,1,731,706.41,48.79,48.79,0,0,1,717.28,704c-9-2.85-17.54-7.53-25.63-12.9A215,215,0,0,1,668.51,673q-10.39-9.31-20-19.53,4.51-4.62,8.9-9.37,5.32-5.75,10.38-11.71t10-12c2.37-3,4.68-6,7-9l-9.12-26.22c-1.11,1.66-2.21,3.33-3.34,5-1.6.1-3.21.19-4.82.27q-15.14.83-30.33.85c-7.37.07-14.74,0-22.11-.26q-5.49.56-10.58.82-9.81.52-17,.52h-7.69a24.61,24.61,0,0,1-4.74-.34q5.9,1,9.65,6.93t.82,13.86L585,614c1.77,2.32,3.55,4.63,5.37,6.92,6.48,8.18,13.24,16.15,20.34,23.83,3.16,3.47,6.42,6.86,9.73,10.2-6.3,6.55-12.78,12.92-19.59,18.88a208.67,208.67,0,0,1-23.33,18c-8.17,5.31-16.79,9.95-25.88,12.72a48.75,48.75,0,0,1-13.83,2.19,21.65,21.65,0,0,1-22.46-13.47A47.2,47.2,0,0,1,510.73,680c-1.83-9.35-1.83-19.17-1-28.91.46-4.87,1.11-9.75,1.95-14.61s1.86-9.7,3-14.52c1.82-7.6,3.94-15.14,6.31-22.62,2.5.64,5,1.24,7.5,1.82l6.17-18c-2.55-.44-5.09-.89-7.62-1.37q3.06-8.31,6.46-16.5c2.57-6.26,5.32-12.44,8.16-18.59q1.68,3.1,3.39,6.18l11-32.09-.82-1.55q1.88-3.56,3.79-7.1l28.8-83.9c-1.38,1.8-2.73,3.62-4.08,5.44-4.45.43-8.9.91-13.34,1.49-10.19,1.3-20.36,2.89-30.45,4.92q-8.54,1.68-17,3.78c-1-3-1.94-6-2.86-9-1.43-4.73-2.71-9.49-3.92-14.27s-2.26-9.57-3.15-14.38-1.65-9.64-2.15-14.48a125.47,125.47,0,0,1-.78-14.46,81.62,81.62,0,0,1,1.19-14.19,53.5,53.5,0,0,1,1.65-6.8,38.64,38.64,0,0,1,2.56-6.43,31.17,31.17,0,0,1,8.61-10.75,31.19,31.19,0,0,1,13.48-3.07,39,39,0,0,1,7,.5,52.32,52.32,0,0,1,6.92,1.56c9.16,2.64,17.87,7.21,26.1,12.5a209.5,209.5,0,0,1,23.59,17.84c7.28,6.27,14.23,13,21,19.88q-1.78,1.83-3.54,3.68h30.32c-.75-.78-1.48-1.57-2.24-2.34,3.42-3.59,6.92-7.07,10.47-10.5s7.21-6.8,11-10a210.34,210.34,0,0,1,23.39-17.94c8.18-5.3,16.81-9.92,25.89-12.68a51.71,51.71,0,0,1,6.86-1.62,38.81,38.81,0,0,1,7-.58,31.18,31.18,0,0,1,13.49,2.89,30.62,30.62,0,0,1,4.89,5A34.85,34.85,0,0,1,753.2,350a40.1,40.1,0,0,1,2.52,6.43,51.34,51.34,0,0,1,1.6,6.8c1.61,9.26,1.34,19,.35,28.58a221.06,221.06,0,0,1-5.28,28.83q-1.8,7.15-3.89,14.26c-.89,3-1.84,6-2.82,9q-3.37-.82-6.75-1.61c-5-1.14-10.07-2.15-15.13-3.1-10.11-1.93-20.29-3.37-30.49-4.6q-4.37-.5-8.75-.91L712.47,515c.63,1.19,1.28,2.37,1.9,3.56l-.41.79,10.62,30.94c1-1.74,1.93-3.47,2.88-5.21,5.51,11.95,10.59,24.1,15.1,36.43q-3.4.66-6.83,1.27L742,601c2.21-.52,4.43-1.06,6.64-1.63,5.27,16.92,9.38,34.21,10.92,51.63A102.09,102.09,0,0,1,758.34,680ZM740.08,460q-7.11,19.25-15.76,38-2.58-4.83-5.25-9.61c-2.54-4.51-5.17-9-7.82-13.43s-5.39-8.84-8.19-13.21q-2.52-3.92-5.12-7.79Q719.15,456.09,740.08,460Zm104.69,70.4A39.63,39.63,0,0,1,837,541.92a71.43,71.43,0,0,1-10.92,9.29,109.56,109.56,0,0,1-12.53,7.55c-4.35,2.29-8.84,4.36-13.43,6.25s-9.25,3.64-14,5.23c-9.09,3.07-18.39,5.65-27.79,7.89A424.31,424.31,0,0,0,740.08,530c-.74-1.66-1.5-3.31-2.26-5,1.75-3.6,3.47-7.21,5.13-10.85a403.35,403.35,0,0,0,18.73-49.49c5.71,1.41,11.37,2.95,17,4.66a227.37,227.37,0,0,1,27.48,10.26,140.85,140.85,0,0,1,13,6.63A100.46,100.46,0,0,1,831,494.35a59.79,59.79,0,0,1,5.3,4.73,47.17,47.17,0,0,1,4.62,5.29,35.13,35.13,0,0,1,6.23,12.37A28.83,28.83,0,0,1,844.77,530.39Z" transform="translate(-416.39 -328.26)"/></svg>